<svg xmlns="http://www.w3.org/2000/svg" viewBox="0 -256 1792 1792"><path d="M1017.492 1102.644v-192q0-13-9.5-22.5t-22.5-9.5h-192q-13 0-22.5 9.5t-9.5 22.5v192q0 13 9.5 22.5t22.5 9.5h192q13 0 22.5-9.5t9.5-22.5zm256-672q0-97-58.5-172t-144.5-111.5q-86-36.5-181-36.5t-181 36.5q-86 36.5-144.5 111.5t-58.5 172v24l1 11.5q1 11.5 3 11.5t5.5 8q3.5 8 9 7t13.5 2h192q14 0 23-9t9-23q0-12 11-27 19-31 50.5-50t66.5-19q39 0 83 21.5t44 57.5q0 33-26.5 58t-63.5 44q-37 19-74.5 41.5t-64 63.5q-26.5 41-26.5 98v24l1 11.5q1 11.5 3 11.5t5.5 8q3.5 8 9 7t13.5 2h192q17 0 24-10.5t8-24.5q1-14 13.5-33t37.5-32q60-33 70-39 62-44 98.5-108t36.5-137zm384 192q0 209-103 385.5t-279.5 279.5q-176.5 103-385.5 103t-385.5-103q-176.5-103-279.5-279.5t-103-385.5q0-209 103-385.5t279.5-279.5q176.5-103 385.5-103t385.5 103q176.5 103 279.5 279.5t103 385.5z" fill="currentColor"/></svg>